<mxfile host="app.diagrams.net" modified="2023-10-22T07:04:07.013Z" agent="Mozilla/5.0 (Windows NT 10.0; Win64; x64) AppleWebKit/537.36 (KHTML, like Gecko) Chrome/117.0.0.0 Safari/537.36" etag="jjoOHozDF8xnX_KvMvEX" version="22.0.6" type="github">
  <diagram name="Bản sao của Trang-9" id="n7YupnNxS1B1uf7vRVLN">
    <mxGraphModel dx="1502" dy="568" grid="0" gridSize="10" guides="1" tooltips="1" connect="1" arrows="1" fold="1" page="1" pageScale="1" pageWidth="2339" pageHeight="3300" math="0" shadow="0">
      <root>
        <mxCell id="ijy5WbkwjNXw3hCgH0EY-0" />
        <mxCell id="ijy5WbkwjNXw3hCgH0EY-1" parent="ijy5WbkwjNXw3hCgH0EY-0" />
        <mxCell id="ijy5WbkwjNXw3hCgH0EY-2" value="&lt;b&gt;Quản lý hãng&lt;/b&gt;" style="text;html=1;align=center;verticalAlign=middle;resizable=0;points=[];autosize=1;strokeColor=none;fillColor=none;" parent="ijy5WbkwjNXw3hCgH0EY-1" vertex="1">
          <mxGeometry x="285" y="1150" width="100" height="30" as="geometry" />
        </mxCell>
        <mxCell id="ijy5WbkwjNXw3hCgH0EY-3" value="Hệ thống" style="shape=umlLifeline;perimeter=lifelinePerimeter;whiteSpace=wrap;html=1;container=1;dropTarget=0;collapsible=0;recursiveResize=0;outlineConnect=0;portConstraint=eastwest;newEdgeStyle={&quot;curved&quot;:0,&quot;rounded&quot;:0};" parent="ijy5WbkwjNXw3hCgH0EY-1" vertex="1">
          <mxGeometry x="500" y="1240" width="105" height="420" as="geometry" />
        </mxCell>
        <mxCell id="ijy5WbkwjNXw3hCgH0EY-4" value="" style="html=1;points=[[0,0,0,0,5],[0,1,0,0,-5],[1,0,0,0,5],[1,1,0,0,-5]];perimeter=orthogonalPerimeter;outlineConnect=0;targetShapes=umlLifeline;portConstraint=eastwest;newEdgeStyle={&quot;curved&quot;:0,&quot;rounded&quot;:0};" parent="ijy5WbkwjNXw3hCgH0EY-3" vertex="1">
          <mxGeometry x="47.5" y="60" width="10" height="60" as="geometry" />
        </mxCell>
        <mxCell id="ijy5WbkwjNXw3hCgH0EY-5" value="1. đăng nhập" style="html=1;verticalAlign=bottom;endArrow=block;curved=0;rounded=0;" parent="ijy5WbkwjNXw3hCgH0EY-3" edge="1">
          <mxGeometry width="80" relative="1" as="geometry">
            <mxPoint x="-155" y="70" as="sourcePoint" />
            <mxPoint x="40" y="70" as="targetPoint" />
          </mxGeometry>
        </mxCell>
        <mxCell id="ijy5WbkwjNXw3hCgH0EY-6" value="1.1 chọn nút quản lý hãng" style="html=1;verticalAlign=bottom;endArrow=block;curved=0;rounded=0;" parent="ijy5WbkwjNXw3hCgH0EY-3" edge="1">
          <mxGeometry width="80" relative="1" as="geometry">
            <mxPoint x="60" y="100" as="sourcePoint" />
            <mxPoint x="260" y="100" as="targetPoint" />
            <mxPoint as="offset" />
          </mxGeometry>
        </mxCell>
        <mxCell id="ijy5WbkwjNXw3hCgH0EY-7" value="Trang quản lý &lt;br&gt;hãng" style="shape=umlLifeline;perimeter=lifelinePerimeter;whiteSpace=wrap;html=1;container=1;dropTarget=0;collapsible=0;recursiveResize=0;outlineConnect=0;portConstraint=eastwest;newEdgeStyle={&quot;curved&quot;:0,&quot;rounded&quot;:0};" parent="ijy5WbkwjNXw3hCgH0EY-1" vertex="1">
          <mxGeometry x="720" y="1240" width="105" height="420" as="geometry" />
        </mxCell>
        <mxCell id="ijy5WbkwjNXw3hCgH0EY-8" value="" style="html=1;points=[[0,0,0,0,5],[0,1,0,0,-5],[1,0,0,0,5],[1,1,0,0,-5]];perimeter=orthogonalPerimeter;outlineConnect=0;targetShapes=umlLifeline;portConstraint=eastwest;newEdgeStyle={&quot;curved&quot;:0,&quot;rounded&quot;:0};" parent="ijy5WbkwjNXw3hCgH0EY-7" vertex="1">
          <mxGeometry x="50" y="80" width="10" height="310" as="geometry" />
        </mxCell>
        <mxCell id="ijy5WbkwjNXw3hCgH0EY-9" value="" style="html=1;points=[[0,0,0,0,5],[0,1,0,0,-5],[1,0,0,0,5],[1,1,0,0,-5]];perimeter=orthogonalPerimeter;outlineConnect=0;targetShapes=umlLifeline;portConstraint=eastwest;newEdgeStyle={&quot;curved&quot;:0,&quot;rounded&quot;:0};" parent="ijy5WbkwjNXw3hCgH0EY-7" vertex="1">
          <mxGeometry x="55" y="120" width="10" height="30" as="geometry" />
        </mxCell>
        <mxCell id="ijy5WbkwjNXw3hCgH0EY-10" value="1.2 hiển thị trang quản lý hãng" style="html=1;align=left;spacingLeft=2;endArrow=block;rounded=0;edgeStyle=orthogonalEdgeStyle;curved=0;rounded=0;" parent="ijy5WbkwjNXw3hCgH0EY-7" edge="1">
          <mxGeometry relative="1" as="geometry">
            <mxPoint x="65" y="110" as="sourcePoint" />
            <Array as="points">
              <mxPoint x="95" y="140" />
            </Array>
            <mxPoint x="65" y="140" as="targetPoint" />
          </mxGeometry>
        </mxCell>
        <mxCell id="ijy5WbkwjNXw3hCgH0EY-11" value="" style="html=1;points=[[0,0,0,0,5],[0,1,0,0,-5],[1,0,0,0,5],[1,1,0,0,-5]];perimeter=orthogonalPerimeter;outlineConnect=0;targetShapes=umlLifeline;portConstraint=eastwest;newEdgeStyle={&quot;curved&quot;:0,&quot;rounded&quot;:0};" parent="ijy5WbkwjNXw3hCgH0EY-7" vertex="1">
          <mxGeometry x="55" y="309" width="10" height="30" as="geometry" />
        </mxCell>
        <mxCell id="ijy5WbkwjNXw3hCgH0EY-12" value="2.4 Hiển thị danh sách hãng" style="html=1;align=left;spacingLeft=2;endArrow=block;rounded=0;edgeStyle=orthogonalEdgeStyle;curved=0;rounded=0;" parent="ijy5WbkwjNXw3hCgH0EY-7" edge="1">
          <mxGeometry relative="1" as="geometry">
            <mxPoint x="65" y="297" as="sourcePoint" />
            <Array as="points">
              <mxPoint x="95" y="327" />
            </Array>
            <mxPoint x="65" y="327" as="targetPoint" />
          </mxGeometry>
        </mxCell>
        <mxCell id="ijy5WbkwjNXw3hCgH0EY-13" value="Dữ liệu hãng" style="shape=umlLifeline;perimeter=lifelinePerimeter;whiteSpace=wrap;html=1;container=1;dropTarget=0;collapsible=0;recursiveResize=0;outlineConnect=0;portConstraint=eastwest;newEdgeStyle={&quot;curved&quot;:0,&quot;rounded&quot;:0};" parent="ijy5WbkwjNXw3hCgH0EY-1" vertex="1">
          <mxGeometry x="985" y="1240" width="100" height="420" as="geometry" />
        </mxCell>
        <mxCell id="ijy5WbkwjNXw3hCgH0EY-14" value="" style="html=1;points=[[0,0,0,0,5],[0,1,0,0,-5],[1,0,0,0,5],[1,1,0,0,-5]];perimeter=orthogonalPerimeter;outlineConnect=0;targetShapes=umlLifeline;portConstraint=eastwest;newEdgeStyle={&quot;curved&quot;:0,&quot;rounded&quot;:0};" parent="ijy5WbkwjNXw3hCgH0EY-13" vertex="1">
          <mxGeometry x="45" y="191" width="10" height="100" as="geometry" />
        </mxCell>
        <mxCell id="ijy5WbkwjNXw3hCgH0EY-15" value="Nhân viên" style="shape=umlLifeline;perimeter=lifelinePerimeter;whiteSpace=wrap;html=1;container=1;dropTarget=0;collapsible=0;recursiveResize=0;outlineConnect=0;portConstraint=eastwest;newEdgeStyle={&quot;curved&quot;:0,&quot;rounded&quot;:0};" parent="ijy5WbkwjNXw3hCgH0EY-1" vertex="1">
          <mxGeometry x="285" y="1240" width="100" height="420" as="geometry" />
        </mxCell>
        <mxCell id="ijy5WbkwjNXw3hCgH0EY-16" value="" style="html=1;points=[[0,0,0,0,5],[0,1,0,0,-5],[1,0,0,0,5],[1,1,0,0,-5]];perimeter=orthogonalPerimeter;outlineConnect=0;targetShapes=umlLifeline;portConstraint=eastwest;newEdgeStyle={&quot;curved&quot;:0,&quot;rounded&quot;:0};" parent="ijy5WbkwjNXw3hCgH0EY-15" vertex="1">
          <mxGeometry x="45" y="60" width="10" height="330" as="geometry" />
        </mxCell>
        <mxCell id="ijy5WbkwjNXw3hCgH0EY-17" value="1. Lấy danh sách tất cả các hãng" style="text;html=1;align=center;verticalAlign=middle;resizable=0;points=[];autosize=1;strokeColor=none;fillColor=none;" parent="ijy5WbkwjNXw3hCgH0EY-1" vertex="1">
          <mxGeometry x="270" y="1190" width="200" height="30" as="geometry" />
        </mxCell>
        <mxCell id="ijy5WbkwjNXw3hCgH0EY-18" value="2. yêu cầu tải danh sách hãng" style="html=1;verticalAlign=bottom;endArrow=block;curved=0;rounded=0;" parent="ijy5WbkwjNXw3hCgH0EY-1" edge="1">
          <mxGeometry width="80" relative="1" as="geometry">
            <mxPoint x="345" y="1410" as="sourcePoint" />
            <mxPoint x="765" y="1410" as="targetPoint" />
          </mxGeometry>
        </mxCell>
        <mxCell id="ijy5WbkwjNXw3hCgH0EY-19" value="2.2 Yêu cầu dữ liệu hãng" style="html=1;verticalAlign=bottom;endArrow=block;curved=0;rounded=0;" parent="ijy5WbkwjNXw3hCgH0EY-1" edge="1">
          <mxGeometry x="0.004" width="80" relative="1" as="geometry">
            <mxPoint x="785" y="1441" as="sourcePoint" />
            <mxPoint x="1034.4999999999995" y="1441" as="targetPoint" />
            <mxPoint as="offset" />
          </mxGeometry>
        </mxCell>
        <mxCell id="ijy5WbkwjNXw3hCgH0EY-20" value="2.3 Trả về danh sách hãng" style="html=1;verticalAlign=bottom;endArrow=open;dashed=1;endSize=8;edgeStyle=elbowEdgeStyle;elbow=vertical;curved=0;rounded=0;" parent="ijy5WbkwjNXw3hCgH0EY-1" edge="1">
          <mxGeometry x="-0.0909" relative="1" as="geometry">
            <mxPoint x="785" y="1515.62" as="targetPoint" />
            <Array as="points">
              <mxPoint x="880" y="1515.62" />
            </Array>
            <mxPoint x="1034.4999999999995" y="1515.62" as="sourcePoint" />
            <mxPoint as="offset" />
          </mxGeometry>
        </mxCell>
        <mxCell id="ijy5WbkwjNXw3hCgH0EY-21" value="2. Thêm hãng" style="text;html=1;align=center;verticalAlign=middle;resizable=0;points=[];autosize=1;strokeColor=none;fillColor=none;" parent="ijy5WbkwjNXw3hCgH0EY-1" vertex="1">
          <mxGeometry x="245" y="1722" width="100" height="30" as="geometry" />
        </mxCell>
        <mxCell id="ijy5WbkwjNXw3hCgH0EY-22" value="Trang quản lý &lt;br&gt;hãng" style="shape=umlLifeline;perimeter=lifelinePerimeter;whiteSpace=wrap;html=1;container=1;dropTarget=0;collapsible=0;recursiveResize=0;outlineConnect=0;portConstraint=eastwest;newEdgeStyle={&quot;curved&quot;:0,&quot;rounded&quot;:0};" parent="ijy5WbkwjNXw3hCgH0EY-1" vertex="1">
          <mxGeometry x="513" y="1772" width="105" height="510" as="geometry" />
        </mxCell>
        <mxCell id="ijy5WbkwjNXw3hCgH0EY-23" value="" style="html=1;points=[[0,0,0,0,5],[0,1,0,0,-5],[1,0,0,0,5],[1,1,0,0,-5]];perimeter=orthogonalPerimeter;outlineConnect=0;targetShapes=umlLifeline;portConstraint=eastwest;newEdgeStyle={&quot;curved&quot;:0,&quot;rounded&quot;:0};" parent="ijy5WbkwjNXw3hCgH0EY-22" vertex="1">
          <mxGeometry x="47.5" y="60" width="10" height="450" as="geometry" />
        </mxCell>
        <mxCell id="ijy5WbkwjNXw3hCgH0EY-24" value="Form thêm mới hãng" style="shape=umlLifeline;perimeter=lifelinePerimeter;whiteSpace=wrap;html=1;container=1;dropTarget=0;collapsible=0;recursiveResize=0;outlineConnect=0;portConstraint=eastwest;newEdgeStyle={&quot;curved&quot;:0,&quot;rounded&quot;:0};" parent="ijy5WbkwjNXw3hCgH0EY-1" vertex="1">
          <mxGeometry x="760" y="1772" width="100" height="510" as="geometry" />
        </mxCell>
        <mxCell id="ijy5WbkwjNXw3hCgH0EY-25" value="" style="html=1;points=[];perimeter=orthogonalPerimeter;outlineConnect=0;targetShapes=umlLifeline;portConstraint=eastwest;newEdgeStyle={&quot;edgeStyle&quot;:&quot;elbowEdgeStyle&quot;,&quot;elbow&quot;:&quot;vertical&quot;,&quot;curved&quot;:0,&quot;rounded&quot;:0};" parent="ijy5WbkwjNXw3hCgH0EY-24" vertex="1">
          <mxGeometry x="45" y="283" width="10" height="147" as="geometry" />
        </mxCell>
        <mxCell id="ijy5WbkwjNXw3hCgH0EY-26" value="" style="html=1;points=[];perimeter=orthogonalPerimeter;outlineConnect=0;targetShapes=umlLifeline;portConstraint=eastwest;newEdgeStyle={&quot;edgeStyle&quot;:&quot;elbowEdgeStyle&quot;,&quot;elbow&quot;:&quot;vertical&quot;,&quot;curved&quot;:0,&quot;rounded&quot;:0};" parent="ijy5WbkwjNXw3hCgH0EY-24" vertex="1">
          <mxGeometry x="45" y="228" width="10" height="30" as="geometry" />
        </mxCell>
        <mxCell id="ijy5WbkwjNXw3hCgH0EY-27" value="" style="html=1;points=[];perimeter=orthogonalPerimeter;outlineConnect=0;targetShapes=umlLifeline;portConstraint=eastwest;newEdgeStyle={&quot;edgeStyle&quot;:&quot;elbowEdgeStyle&quot;,&quot;elbow&quot;:&quot;vertical&quot;,&quot;curved&quot;:0,&quot;rounded&quot;:0};" parent="ijy5WbkwjNXw3hCgH0EY-24" vertex="1">
          <mxGeometry x="45" y="90" width="10" height="120" as="geometry" />
        </mxCell>
        <mxCell id="ijy5WbkwjNXw3hCgH0EY-28" value="Dữ liệu hãng" style="shape=umlLifeline;perimeter=lifelinePerimeter;whiteSpace=wrap;html=1;container=1;dropTarget=0;collapsible=0;recursiveResize=0;outlineConnect=0;portConstraint=eastwest;newEdgeStyle={&quot;curved&quot;:0,&quot;rounded&quot;:0};" parent="ijy5WbkwjNXw3hCgH0EY-1" vertex="1">
          <mxGeometry x="1000" y="1772" width="100" height="510" as="geometry" />
        </mxCell>
        <mxCell id="ijy5WbkwjNXw3hCgH0EY-29" value="" style="html=1;points=[];perimeter=orthogonalPerimeter;outlineConnect=0;targetShapes=umlLifeline;portConstraint=eastwest;newEdgeStyle={&quot;edgeStyle&quot;:&quot;elbowEdgeStyle&quot;,&quot;elbow&quot;:&quot;vertical&quot;,&quot;curved&quot;:0,&quot;rounded&quot;:0};" parent="ijy5WbkwjNXw3hCgH0EY-28" vertex="1">
          <mxGeometry x="45" y="298" width="10" height="120" as="geometry" />
        </mxCell>
        <mxCell id="ijy5WbkwjNXw3hCgH0EY-30" value="Nhân viên" style="shape=umlLifeline;perimeter=lifelinePerimeter;whiteSpace=wrap;html=1;container=1;dropTarget=0;collapsible=0;recursiveResize=0;outlineConnect=0;portConstraint=eastwest;newEdgeStyle={&quot;curved&quot;:0,&quot;rounded&quot;:0};" parent="ijy5WbkwjNXw3hCgH0EY-1" vertex="1">
          <mxGeometry x="280" y="1772" width="100" height="510" as="geometry" />
        </mxCell>
        <mxCell id="ijy5WbkwjNXw3hCgH0EY-31" value="" style="html=1;points=[[0,0,0,0,5],[0,1,0,0,-5],[1,0,0,0,5],[1,1,0,0,-5]];perimeter=orthogonalPerimeter;outlineConnect=0;targetShapes=umlLifeline;portConstraint=eastwest;newEdgeStyle={&quot;curved&quot;:0,&quot;rounded&quot;:0};" parent="ijy5WbkwjNXw3hCgH0EY-30" vertex="1">
          <mxGeometry x="45" y="60" width="10" height="360" as="geometry" />
        </mxCell>
        <mxCell id="ijy5WbkwjNXw3hCgH0EY-32" value="" style="html=1;points=[];perimeter=orthogonalPerimeter;outlineConnect=0;targetShapes=umlLifeline;portConstraint=eastwest;newEdgeStyle={&quot;edgeStyle&quot;:&quot;elbowEdgeStyle&quot;,&quot;elbow&quot;:&quot;vertical&quot;,&quot;curved&quot;:0,&quot;rounded&quot;:0};" parent="ijy5WbkwjNXw3hCgH0EY-1" vertex="1">
          <mxGeometry x="565" y="2226" width="10" height="30" as="geometry" />
        </mxCell>
        <mxCell id="ijy5WbkwjNXw3hCgH0EY-33" value="3.10 Hiển thị danh sách hãng" style="html=1;align=left;spacingLeft=2;endArrow=block;rounded=0;edgeStyle=orthogonalEdgeStyle;curved=0;rounded=0;" parent="ijy5WbkwjNXw3hCgH0EY-1" edge="1">
          <mxGeometry relative="1" as="geometry">
            <mxPoint x="572.5" y="2213" as="sourcePoint" />
            <Array as="points">
              <mxPoint x="572.5" y="2213" />
              <mxPoint x="602.5" y="2213" />
              <mxPoint x="602.5" y="2233" />
            </Array>
            <mxPoint x="577.5" y="2233" as="targetPoint" />
          </mxGeometry>
        </mxCell>
        <mxCell id="ijy5WbkwjNXw3hCgH0EY-34" value="3. Yêu cầu tạo mới hãng" style="html=1;verticalAlign=bottom;endArrow=block;edgeStyle=elbowEdgeStyle;elbow=vertical;curved=0;rounded=0;" parent="ijy5WbkwjNXw3hCgH0EY-1" edge="1">
          <mxGeometry relative="1" as="geometry">
            <mxPoint x="345" y="1862" as="sourcePoint" />
            <Array as="points">
              <mxPoint x="430" y="1862" />
            </Array>
            <mxPoint x="555" y="1862" as="targetPoint" />
          </mxGeometry>
        </mxCell>
        <mxCell id="ijy5WbkwjNXw3hCgH0EY-35" value="3.1 Gọi hàm show form add hãng" style="html=1;verticalAlign=bottom;endArrow=block;edgeStyle=elbowEdgeStyle;elbow=vertical;curved=0;rounded=0;" parent="ijy5WbkwjNXw3hCgH0EY-1" edge="1">
          <mxGeometry relative="1" as="geometry">
            <mxPoint x="575" y="1892" as="sourcePoint" />
            <Array as="points">
              <mxPoint x="670" y="1892" />
            </Array>
            <mxPoint x="795" y="1892" as="targetPoint" />
            <mxPoint as="offset" />
          </mxGeometry>
        </mxCell>
        <mxCell id="ijy5WbkwjNXw3hCgH0EY-36" value="3.5 Gọi hàm&amp;nbsp;add() của Airlines" style="html=1;verticalAlign=bottom;endArrow=block;edgeStyle=elbowEdgeStyle;elbow=vertical;curved=0;rounded=0;" parent="ijy5WbkwjNXw3hCgH0EY-1" edge="1">
          <mxGeometry relative="1" as="geometry">
            <mxPoint x="820" y="2085" as="sourcePoint" />
            <Array as="points">
              <mxPoint x="915" y="2085" />
            </Array>
            <mxPoint x="1040" y="2085" as="targetPoint" />
            <mxPoint as="offset" />
          </mxGeometry>
        </mxCell>
        <mxCell id="ijy5WbkwjNXw3hCgH0EY-37" value="3.6 Thông tin thêm hợp lệ" style="html=1;verticalAlign=bottom;endArrow=open;dashed=1;endSize=8;edgeStyle=elbowEdgeStyle;elbow=vertical;curved=0;rounded=0;" parent="ijy5WbkwjNXw3hCgH0EY-1" edge="1">
          <mxGeometry x="-0.0909" relative="1" as="geometry">
            <mxPoint x="820" y="2115" as="targetPoint" />
            <Array as="points">
              <mxPoint x="915" y="2115" />
            </Array>
            <mxPoint x="1040" y="2115" as="sourcePoint" />
            <mxPoint as="offset" />
          </mxGeometry>
        </mxCell>
        <mxCell id="ijy5WbkwjNXw3hCgH0EY-38" value="3.9 Trả về danh hãng" style="html=1;verticalAlign=bottom;endArrow=open;dashed=1;endSize=8;edgeStyle=elbowEdgeStyle;elbow=vertical;curved=0;rounded=0;" parent="ijy5WbkwjNXw3hCgH0EY-1" edge="1">
          <mxGeometry x="-0.0909" relative="1" as="geometry">
            <mxPoint x="572.5" y="2193" as="targetPoint" />
            <Array as="points">
              <mxPoint x="667.5" y="2193" />
            </Array>
            <mxPoint x="792.5" y="2193" as="sourcePoint" />
            <mxPoint as="offset" />
          </mxGeometry>
        </mxCell>
        <mxCell id="ijy5WbkwjNXw3hCgH0EY-39" value="3.7 Thực hiện thêm hãng vào db" style="html=1;verticalAlign=bottom;endArrow=block;edgeStyle=elbowEdgeStyle;elbow=vertical;curved=0;rounded=0;" parent="ijy5WbkwjNXw3hCgH0EY-1" edge="1">
          <mxGeometry relative="1" as="geometry">
            <mxPoint x="820" y="2145" as="sourcePoint" />
            <Array as="points">
              <mxPoint x="915" y="2145" />
            </Array>
            <mxPoint x="1040" y="2145" as="targetPoint" />
          </mxGeometry>
        </mxCell>
        <mxCell id="ijy5WbkwjNXw3hCgH0EY-40" value="3.8 Trả về danh sách hãng mới" style="html=1;verticalAlign=bottom;endArrow=open;dashed=1;endSize=8;edgeStyle=elbowEdgeStyle;elbow=vertical;curved=0;rounded=0;" parent="ijy5WbkwjNXw3hCgH0EY-1" edge="1">
          <mxGeometry x="-0.0909" relative="1" as="geometry">
            <mxPoint x="820" y="2175" as="targetPoint" />
            <Array as="points">
              <mxPoint x="915" y="2175" />
            </Array>
            <mxPoint x="1040" y="2175" as="sourcePoint" />
            <mxPoint as="offset" />
          </mxGeometry>
        </mxCell>
        <mxCell id="ijy5WbkwjNXw3hCgH0EY-41" value="3.2 Yêu cầu nhập thông tin hãng" style="html=1;verticalAlign=bottom;endArrow=block;edgeStyle=elbowEdgeStyle;elbow=vertical;curved=0;rounded=0;" parent="ijy5WbkwjNXw3hCgH0EY-1" edge="1">
          <mxGeometry relative="1" as="geometry">
            <mxPoint x="802" y="1932" as="sourcePoint" />
            <Array as="points">
              <mxPoint x="682" y="1932" />
            </Array>
            <mxPoint x="336.5476190476188" y="1932" as="targetPoint" />
            <mxPoint as="offset" />
          </mxGeometry>
        </mxCell>
        <mxCell id="ijy5WbkwjNXw3hCgH0EY-42" value="3.3 Nhập thông tin hãng" style="html=1;verticalAlign=bottom;endArrow=block;edgeStyle=elbowEdgeStyle;elbow=vertical;curved=0;rounded=0;" parent="ijy5WbkwjNXw3hCgH0EY-1" edge="1">
          <mxGeometry relative="1" as="geometry">
            <mxPoint x="339" y="1971" as="sourcePoint" />
            <Array as="points">
              <mxPoint x="681.73" y="1971" />
            </Array>
            <mxPoint x="806.73" y="1971" as="targetPoint" />
            <mxPoint as="offset" />
          </mxGeometry>
        </mxCell>
        <mxCell id="ijy5WbkwjNXw3hCgH0EY-43" value="3.4 Kiểm tra dữ liệu đầu vào" style="html=1;align=left;spacingLeft=2;endArrow=block;rounded=0;edgeStyle=orthogonalEdgeStyle;curved=0;rounded=0;" parent="ijy5WbkwjNXw3hCgH0EY-1" edge="1">
          <mxGeometry relative="1" as="geometry">
            <mxPoint x="811" y="1992" as="sourcePoint" />
            <Array as="points">
              <mxPoint x="811" y="1992" />
              <mxPoint x="841" y="1992" />
              <mxPoint x="841" y="2012" />
            </Array>
            <mxPoint x="816" y="2012" as="targetPoint" />
          </mxGeometry>
        </mxCell>
        <mxCell id="ijy5WbkwjNXw3hCgH0EY-44" value="3. Chỉnh sửa" style="text;html=1;align=center;verticalAlign=middle;resizable=0;points=[];autosize=1;strokeColor=none;fillColor=none;" parent="ijy5WbkwjNXw3hCgH0EY-1" vertex="1">
          <mxGeometry x="285" y="2384" width="90" height="30" as="geometry" />
        </mxCell>
        <mxCell id="ijy5WbkwjNXw3hCgH0EY-45" value="Trang quản lý &lt;br&gt;hãng" style="shape=umlLifeline;perimeter=lifelinePerimeter;whiteSpace=wrap;html=1;container=1;dropTarget=0;collapsible=0;recursiveResize=0;outlineConnect=0;portConstraint=eastwest;newEdgeStyle={&quot;curved&quot;:0,&quot;rounded&quot;:0};" parent="ijy5WbkwjNXw3hCgH0EY-1" vertex="1">
          <mxGeometry x="548" y="2434" width="105" height="680" as="geometry" />
        </mxCell>
        <mxCell id="ijy5WbkwjNXw3hCgH0EY-46" value="" style="html=1;points=[[0,0,0,0,5],[0,1,0,0,-5],[1,0,0,0,5],[1,1,0,0,-5]];perimeter=orthogonalPerimeter;outlineConnect=0;targetShapes=umlLifeline;portConstraint=eastwest;newEdgeStyle={&quot;curved&quot;:0,&quot;rounded&quot;:0};" parent="ijy5WbkwjNXw3hCgH0EY-45" vertex="1">
          <mxGeometry x="47.5" y="60" width="10" height="580" as="geometry" />
        </mxCell>
        <mxCell id="ijy5WbkwjNXw3hCgH0EY-47" value="Form cập nhật hãng" style="shape=umlLifeline;perimeter=lifelinePerimeter;whiteSpace=wrap;html=1;container=1;dropTarget=0;collapsible=0;recursiveResize=0;outlineConnect=0;portConstraint=eastwest;newEdgeStyle={&quot;curved&quot;:0,&quot;rounded&quot;:0};" parent="ijy5WbkwjNXw3hCgH0EY-1" vertex="1">
          <mxGeometry x="795" y="2434" width="100" height="680" as="geometry" />
        </mxCell>
        <mxCell id="ijy5WbkwjNXw3hCgH0EY-48" value="" style="html=1;points=[];perimeter=orthogonalPerimeter;outlineConnect=0;targetShapes=umlLifeline;portConstraint=eastwest;newEdgeStyle={&quot;edgeStyle&quot;:&quot;elbowEdgeStyle&quot;,&quot;elbow&quot;:&quot;vertical&quot;,&quot;curved&quot;:0,&quot;rounded&quot;:0};" parent="ijy5WbkwjNXw3hCgH0EY-47" vertex="1">
          <mxGeometry x="45" y="423" width="10" height="217" as="geometry" />
        </mxCell>
        <mxCell id="ijy5WbkwjNXw3hCgH0EY-49" value="" style="html=1;points=[];perimeter=orthogonalPerimeter;outlineConnect=0;targetShapes=umlLifeline;portConstraint=eastwest;newEdgeStyle={&quot;edgeStyle&quot;:&quot;elbowEdgeStyle&quot;,&quot;elbow&quot;:&quot;vertical&quot;,&quot;curved&quot;:0,&quot;rounded&quot;:0};" parent="ijy5WbkwjNXw3hCgH0EY-47" vertex="1">
          <mxGeometry x="45" y="368" width="10" height="30" as="geometry" />
        </mxCell>
        <mxCell id="ijy5WbkwjNXw3hCgH0EY-50" value="" style="html=1;points=[];perimeter=orthogonalPerimeter;outlineConnect=0;targetShapes=umlLifeline;portConstraint=eastwest;newEdgeStyle={&quot;edgeStyle&quot;:&quot;elbowEdgeStyle&quot;,&quot;elbow&quot;:&quot;vertical&quot;,&quot;curved&quot;:0,&quot;rounded&quot;:0};" parent="ijy5WbkwjNXw3hCgH0EY-47" vertex="1">
          <mxGeometry x="45" y="228" width="10" height="120" as="geometry" />
        </mxCell>
        <mxCell id="ijy5WbkwjNXw3hCgH0EY-51" value="" style="html=1;points=[];perimeter=orthogonalPerimeter;outlineConnect=0;targetShapes=umlLifeline;portConstraint=eastwest;newEdgeStyle={&quot;edgeStyle&quot;:&quot;elbowEdgeStyle&quot;,&quot;elbow&quot;:&quot;vertical&quot;,&quot;curved&quot;:0,&quot;rounded&quot;:0};" parent="ijy5WbkwjNXw3hCgH0EY-1" vertex="1">
          <mxGeometry x="1080" y="2872" width="10" height="120" as="geometry" />
        </mxCell>
        <mxCell id="ijy5WbkwjNXw3hCgH0EY-52" value="Nhân viên" style="shape=umlLifeline;perimeter=lifelinePerimeter;whiteSpace=wrap;html=1;container=1;dropTarget=0;collapsible=0;recursiveResize=0;outlineConnect=0;portConstraint=eastwest;newEdgeStyle={&quot;curved&quot;:0,&quot;rounded&quot;:0};" parent="ijy5WbkwjNXw3hCgH0EY-1" vertex="1">
          <mxGeometry x="315" y="2434" width="100" height="680" as="geometry" />
        </mxCell>
        <mxCell id="ijy5WbkwjNXw3hCgH0EY-53" value="" style="html=1;points=[[0,0,0,0,5],[0,1,0,0,-5],[1,0,0,0,5],[1,1,0,0,-5]];perimeter=orthogonalPerimeter;outlineConnect=0;targetShapes=umlLifeline;portConstraint=eastwest;newEdgeStyle={&quot;curved&quot;:0,&quot;rounded&quot;:0};" parent="ijy5WbkwjNXw3hCgH0EY-52" vertex="1">
          <mxGeometry x="45" y="60" width="10" height="360" as="geometry" />
        </mxCell>
        <mxCell id="ijy5WbkwjNXw3hCgH0EY-54" value="" style="html=1;points=[];perimeter=orthogonalPerimeter;outlineConnect=0;targetShapes=umlLifeline;portConstraint=eastwest;newEdgeStyle={&quot;edgeStyle&quot;:&quot;elbowEdgeStyle&quot;,&quot;elbow&quot;:&quot;vertical&quot;,&quot;curved&quot;:0,&quot;rounded&quot;:0};" parent="ijy5WbkwjNXw3hCgH0EY-1" vertex="1">
          <mxGeometry x="600" y="3028" width="10" height="30" as="geometry" />
        </mxCell>
        <mxCell id="ijy5WbkwjNXw3hCgH0EY-55" value="3.10 Hiển thị danh sách hãng" style="html=1;align=left;spacingLeft=2;endArrow=block;rounded=0;edgeStyle=orthogonalEdgeStyle;curved=0;rounded=0;" parent="ijy5WbkwjNXw3hCgH0EY-1" edge="1">
          <mxGeometry relative="1" as="geometry">
            <mxPoint x="607.5" y="3015" as="sourcePoint" />
            <Array as="points">
              <mxPoint x="607.5" y="3015" />
              <mxPoint x="637.5" y="3015" />
              <mxPoint x="637.5" y="3035" />
            </Array>
            <mxPoint x="612.5" y="3035" as="targetPoint" />
          </mxGeometry>
        </mxCell>
        <mxCell id="ijy5WbkwjNXw3hCgH0EY-56" value="3. Yêu cầu chỉnh sửa hãng" style="html=1;verticalAlign=bottom;endArrow=block;edgeStyle=elbowEdgeStyle;elbow=vertical;curved=0;rounded=0;" parent="ijy5WbkwjNXw3hCgH0EY-1" edge="1">
          <mxGeometry relative="1" as="geometry">
            <mxPoint x="380" y="2524" as="sourcePoint" />
            <Array as="points">
              <mxPoint x="465" y="2524" />
            </Array>
            <mxPoint x="590" y="2524" as="targetPoint" />
          </mxGeometry>
        </mxCell>
        <mxCell id="ijy5WbkwjNXw3hCgH0EY-57" value="3.5 Gọi hàm&amp;nbsp;update() của Airlines" style="html=1;verticalAlign=bottom;endArrow=block;edgeStyle=elbowEdgeStyle;elbow=vertical;curved=0;rounded=0;" parent="ijy5WbkwjNXw3hCgH0EY-1" edge="1">
          <mxGeometry relative="1" as="geometry">
            <mxPoint x="855" y="2887" as="sourcePoint" />
            <Array as="points">
              <mxPoint x="950" y="2887" />
            </Array>
            <mxPoint x="1075" y="2887" as="targetPoint" />
            <mxPoint as="offset" />
          </mxGeometry>
        </mxCell>
        <mxCell id="ijy5WbkwjNXw3hCgH0EY-58" value="3.6 Thông tin thêm hợp lệ" style="html=1;verticalAlign=bottom;endArrow=open;dashed=1;endSize=8;edgeStyle=elbowEdgeStyle;elbow=vertical;curved=0;rounded=0;" parent="ijy5WbkwjNXw3hCgH0EY-1" edge="1">
          <mxGeometry x="-0.0909" relative="1" as="geometry">
            <mxPoint x="855" y="2917" as="targetPoint" />
            <Array as="points">
              <mxPoint x="950" y="2917" />
            </Array>
            <mxPoint x="1075" y="2917" as="sourcePoint" />
            <mxPoint as="offset" />
          </mxGeometry>
        </mxCell>
        <mxCell id="ijy5WbkwjNXw3hCgH0EY-59" value="3.9 Trả về danh hãng" style="html=1;verticalAlign=bottom;endArrow=open;dashed=1;endSize=8;edgeStyle=elbowEdgeStyle;elbow=vertical;curved=0;rounded=0;" parent="ijy5WbkwjNXw3hCgH0EY-1" edge="1">
          <mxGeometry x="-0.0909" relative="1" as="geometry">
            <mxPoint x="607.5" y="2995" as="targetPoint" />
            <Array as="points">
              <mxPoint x="702.5" y="2995" />
            </Array>
            <mxPoint x="827.5" y="2995" as="sourcePoint" />
            <mxPoint as="offset" />
          </mxGeometry>
        </mxCell>
        <mxCell id="ijy5WbkwjNXw3hCgH0EY-60" value="3.7 Thực hiện thêm hãng vào db" style="html=1;verticalAlign=bottom;endArrow=block;edgeStyle=elbowEdgeStyle;elbow=vertical;curved=0;rounded=0;" parent="ijy5WbkwjNXw3hCgH0EY-1" edge="1">
          <mxGeometry relative="1" as="geometry">
            <mxPoint x="855" y="2947" as="sourcePoint" />
            <Array as="points">
              <mxPoint x="950" y="2947" />
            </Array>
            <mxPoint x="1075" y="2947" as="targetPoint" />
          </mxGeometry>
        </mxCell>
        <mxCell id="ijy5WbkwjNXw3hCgH0EY-61" value="3.8 Trả về danh sách hãng mới" style="html=1;verticalAlign=bottom;endArrow=open;dashed=1;endSize=8;edgeStyle=elbowEdgeStyle;elbow=vertical;curved=0;rounded=0;" parent="ijy5WbkwjNXw3hCgH0EY-1" edge="1">
          <mxGeometry x="-0.0909" relative="1" as="geometry">
            <mxPoint x="855" y="2977" as="targetPoint" />
            <Array as="points">
              <mxPoint x="950" y="2977" />
            </Array>
            <mxPoint x="1075" y="2977" as="sourcePoint" />
            <mxPoint as="offset" />
          </mxGeometry>
        </mxCell>
        <mxCell id="ijy5WbkwjNXw3hCgH0EY-62" value="3.3 Nhập thông tin hãng" style="html=1;verticalAlign=bottom;endArrow=block;edgeStyle=elbowEdgeStyle;elbow=vertical;curved=0;rounded=0;" parent="ijy5WbkwjNXw3hCgH0EY-1" edge="1">
          <mxGeometry relative="1" as="geometry">
            <mxPoint x="373" y="2769" as="sourcePoint" />
            <Array as="points">
              <mxPoint x="715.73" y="2769" />
            </Array>
            <mxPoint x="840.73" y="2769" as="targetPoint" />
            <mxPoint as="offset" />
          </mxGeometry>
        </mxCell>
        <mxCell id="ijy5WbkwjNXw3hCgH0EY-63" value="3.4 Kiểm tra dữ liệu đầu vào" style="html=1;align=left;spacingLeft=2;endArrow=block;rounded=0;edgeStyle=orthogonalEdgeStyle;curved=0;rounded=0;" parent="ijy5WbkwjNXw3hCgH0EY-1" edge="1">
          <mxGeometry relative="1" as="geometry">
            <mxPoint x="846" y="2794" as="sourcePoint" />
            <Array as="points">
              <mxPoint x="846" y="2794" />
              <mxPoint x="876" y="2794" />
              <mxPoint x="876" y="2814" />
            </Array>
            <mxPoint x="851" y="2814" as="targetPoint" />
          </mxGeometry>
        </mxCell>
        <mxCell id="ijy5WbkwjNXw3hCgH0EY-64" value="Dữ liệu hãng" style="shape=umlLifeline;perimeter=lifelinePerimeter;whiteSpace=wrap;html=1;container=1;dropTarget=0;collapsible=0;recursiveResize=0;outlineConnect=0;portConstraint=eastwest;newEdgeStyle={&quot;curved&quot;:0,&quot;rounded&quot;:0};" parent="ijy5WbkwjNXw3hCgH0EY-1" vertex="1">
          <mxGeometry x="1035" y="2434" width="100" height="680" as="geometry" />
        </mxCell>
        <mxCell id="ijy5WbkwjNXw3hCgH0EY-65" value="" style="html=1;points=[];perimeter=orthogonalPerimeter;outlineConnect=0;targetShapes=umlLifeline;portConstraint=eastwest;newEdgeStyle={&quot;edgeStyle&quot;:&quot;elbowEdgeStyle&quot;,&quot;elbow&quot;:&quot;vertical&quot;,&quot;curved&quot;:0,&quot;rounded&quot;:0};" parent="ijy5WbkwjNXw3hCgH0EY-64" vertex="1">
          <mxGeometry x="45" y="190" width="10" height="80" as="geometry" />
        </mxCell>
        <mxCell id="ijy5WbkwjNXw3hCgH0EY-66" value="3.1 Yêu cầu chọn hãng cần chỉnh sửa" style="html=1;verticalAlign=bottom;endArrow=block;edgeStyle=elbowEdgeStyle;elbow=vertical;curved=0;rounded=0;" parent="ijy5WbkwjNXw3hCgH0EY-1" edge="1">
          <mxGeometry x="0.1219" relative="1" as="geometry">
            <mxPoint x="539" y="2567" as="sourcePoint" />
            <Array as="points">
              <mxPoint x="589" y="2567" />
            </Array>
            <mxPoint x="373.3888888888887" y="2567" as="targetPoint" />
            <mxPoint as="offset" />
          </mxGeometry>
        </mxCell>
        <mxCell id="ijy5WbkwjNXw3hCgH0EY-67" value="3.2 Chọn hãng cần chỉnh sửa" style="html=1;verticalAlign=bottom;endArrow=block;edgeStyle=elbowEdgeStyle;elbow=vertical;curved=0;rounded=0;" parent="ijy5WbkwjNXw3hCgH0EY-1" edge="1">
          <mxGeometry relative="1" as="geometry">
            <mxPoint x="378" y="2613" as="sourcePoint" />
            <Array as="points">
              <mxPoint x="463" y="2613" />
            </Array>
            <mxPoint x="588" y="2613" as="targetPoint" />
          </mxGeometry>
        </mxCell>
        <mxCell id="ijy5WbkwjNXw3hCgH0EY-68" value="3.3 Yêu cầu thông tin hãng" style="html=1;verticalAlign=bottom;endArrow=block;edgeStyle=elbowEdgeStyle;elbow=vertical;curved=0;rounded=0;" parent="ijy5WbkwjNXw3hCgH0EY-1" edge="1">
          <mxGeometry relative="1" as="geometry">
            <mxPoint x="609" y="2644" as="sourcePoint" />
            <Array as="points">
              <mxPoint x="694" y="2644" />
            </Array>
            <mxPoint x="1083.5000000000005" y="2644" as="targetPoint" />
          </mxGeometry>
        </mxCell>
        <mxCell id="ijy5WbkwjNXw3hCgH0EY-69" value="3.4 Trả dữ liệu hãng ra form" style="html=1;verticalAlign=bottom;endArrow=block;edgeStyle=elbowEdgeStyle;elbow=vertical;curved=0;rounded=0;" parent="ijy5WbkwjNXw3hCgH0EY-1" edge="1">
          <mxGeometry x="0.1219" relative="1" as="geometry">
            <mxPoint x="1025.6100000000001" y="2688.44" as="sourcePoint" />
            <Array as="points">
              <mxPoint x="1075.6100000000001" y="2688.44" />
            </Array>
            <mxPoint x="859.9988888888887" y="2688.44" as="targetPoint" />
            <mxPoint as="offset" />
          </mxGeometry>
        </mxCell>
        <mxCell id="ijy5WbkwjNXw3hCgH0EY-70" value="3.5 Yêu cầu nhập thông tin chỉnh sửa" style="html=1;verticalAlign=bottom;endArrow=block;edgeStyle=elbowEdgeStyle;elbow=vertical;curved=0;rounded=0;" parent="ijy5WbkwjNXw3hCgH0EY-1" edge="1">
          <mxGeometry x="0.1219" relative="1" as="geometry">
            <mxPoint x="797" y="2724" as="sourcePoint" />
            <Array as="points">
              <mxPoint x="847" y="2724" />
            </Array>
            <mxPoint x="366.3888888888887" y="2724" as="targetPoint" />
            <mxPoint as="offset" />
          </mxGeometry>
        </mxCell>
        <mxCell id="ijy5WbkwjNXw3hCgH0EY-71" value="4. Xóa hãng" style="text;html=1;align=center;verticalAlign=middle;resizable=0;points=[];autosize=1;strokeColor=none;fillColor=none;" parent="ijy5WbkwjNXw3hCgH0EY-1" vertex="1">
          <mxGeometry x="1305" y="1208" width="90" height="30" as="geometry" />
        </mxCell>
        <mxCell id="ijy5WbkwjNXw3hCgH0EY-72" value="Trang quản lý &lt;br&gt;hãng" style="shape=umlLifeline;perimeter=lifelinePerimeter;whiteSpace=wrap;html=1;container=1;dropTarget=0;collapsible=0;recursiveResize=0;outlineConnect=0;portConstraint=eastwest;newEdgeStyle={&quot;curved&quot;:0,&quot;rounded&quot;:0};" parent="ijy5WbkwjNXw3hCgH0EY-1" vertex="1">
          <mxGeometry x="1543" y="1258" width="105" height="550" as="geometry" />
        </mxCell>
        <mxCell id="ijy5WbkwjNXw3hCgH0EY-73" value="5.11 Hiển thị&amp;nbsp;danh sách hãng sau&lt;br style=&quot;border-color: var(--border-color); text-align: center;&quot;&gt;khi thực hiện xóa" style="html=1;align=left;spacingLeft=2;endArrow=block;rounded=0;edgeStyle=orthogonalEdgeStyle;curved=0;rounded=0;" parent="ijy5WbkwjNXw3hCgH0EY-72" edge="1">
          <mxGeometry x="0.3332" y="10" relative="1" as="geometry">
            <mxPoint x="59.5" y="442" as="sourcePoint" />
            <Array as="points">
              <mxPoint x="59.5" y="442" />
              <mxPoint x="89.5" y="442" />
              <mxPoint x="89.5" y="462" />
            </Array>
            <mxPoint x="64.5" y="462" as="targetPoint" />
            <mxPoint x="3" as="offset" />
          </mxGeometry>
        </mxCell>
        <mxCell id="ijy5WbkwjNXw3hCgH0EY-74" value="Xử lý các thông tin hãng" style="shape=umlLifeline;perimeter=lifelinePerimeter;whiteSpace=wrap;html=1;container=1;dropTarget=0;collapsible=0;recursiveResize=0;outlineConnect=0;portConstraint=eastwest;newEdgeStyle={&quot;curved&quot;:0,&quot;rounded&quot;:0};" parent="ijy5WbkwjNXw3hCgH0EY-1" vertex="1">
          <mxGeometry x="1790" y="1258" width="100" height="550" as="geometry" />
        </mxCell>
        <mxCell id="ijy5WbkwjNXw3hCgH0EY-75" value="5.10 Trả về danh sách hãng sau&lt;br style=&quot;border-color: var(--border-color);&quot;&gt;khi thực hiện xóa" style="html=1;verticalAlign=bottom;endArrow=open;dashed=1;endSize=8;edgeStyle=elbowEdgeStyle;elbow=vertical;curved=0;rounded=0;" parent="ijy5WbkwjNXw3hCgH0EY-74" edge="1">
          <mxGeometry x="-0.0909" relative="1" as="geometry">
            <mxPoint x="-185" y="422" as="targetPoint" />
            <Array as="points">
              <mxPoint x="-112.5" y="422" />
            </Array>
            <mxPoint x="40" y="420" as="sourcePoint" />
            <mxPoint as="offset" />
          </mxGeometry>
        </mxCell>
        <mxCell id="ijy5WbkwjNXw3hCgH0EY-76" value="Dữ liệu hãng" style="shape=umlLifeline;perimeter=lifelinePerimeter;whiteSpace=wrap;html=1;container=1;dropTarget=0;collapsible=0;recursiveResize=0;outlineConnect=0;portConstraint=eastwest;newEdgeStyle={&quot;curved&quot;:0,&quot;rounded&quot;:0};" parent="ijy5WbkwjNXw3hCgH0EY-1" vertex="1">
          <mxGeometry x="2030" y="1258" width="100" height="420" as="geometry" />
        </mxCell>
        <mxCell id="ijy5WbkwjNXw3hCgH0EY-77" value="" style="html=1;points=[[0,0,0,0,5],[0,1,0,0,-5],[1,0,0,0,5],[1,1,0,0,-5]];perimeter=orthogonalPerimeter;outlineConnect=0;targetShapes=umlLifeline;portConstraint=eastwest;newEdgeStyle={&quot;curved&quot;:0,&quot;rounded&quot;:0};" parent="ijy5WbkwjNXw3hCgH0EY-76" vertex="1">
          <mxGeometry x="45" y="315" width="10" height="100" as="geometry" />
        </mxCell>
        <mxCell id="ijy5WbkwjNXw3hCgH0EY-78" value="Nhân viên" style="shape=umlLifeline;perimeter=lifelinePerimeter;whiteSpace=wrap;html=1;container=1;dropTarget=0;collapsible=0;recursiveResize=0;outlineConnect=0;portConstraint=eastwest;newEdgeStyle={&quot;curved&quot;:0,&quot;rounded&quot;:0};" parent="ijy5WbkwjNXw3hCgH0EY-1" vertex="1">
          <mxGeometry x="1310" y="1258" width="100" height="550" as="geometry" />
        </mxCell>
        <mxCell id="ijy5WbkwjNXw3hCgH0EY-79" value="" style="html=1;points=[[0,0,0,0,5],[0,1,0,0,-5],[1,0,0,0,5],[1,1,0,0,-5]];perimeter=orthogonalPerimeter;outlineConnect=0;targetShapes=umlLifeline;portConstraint=eastwest;newEdgeStyle={&quot;curved&quot;:0,&quot;rounded&quot;:0};" parent="ijy5WbkwjNXw3hCgH0EY-78" vertex="1">
          <mxGeometry x="45" y="70" width="10" height="312" as="geometry" />
        </mxCell>
        <mxCell id="ijy5WbkwjNXw3hCgH0EY-80" value="" style="html=1;points=[[0,0,0,0,5],[0,1,0,0,-5],[1,0,0,0,5],[1,1,0,0,-5]];perimeter=orthogonalPerimeter;outlineConnect=0;targetShapes=umlLifeline;portConstraint=eastwest;newEdgeStyle={&quot;curved&quot;:0,&quot;rounded&quot;:0};" parent="ijy5WbkwjNXw3hCgH0EY-1" vertex="1">
          <mxGeometry x="1590" y="1328" width="10" height="302" as="geometry" />
        </mxCell>
        <mxCell id="ijy5WbkwjNXw3hCgH0EY-81" value="" style="html=1;points=[[0,0,0,0,5],[0,1,0,0,-5],[1,0,0,0,5],[1,1,0,0,-5]];perimeter=orthogonalPerimeter;outlineConnect=0;targetShapes=umlLifeline;portConstraint=eastwest;newEdgeStyle={&quot;curved&quot;:0,&quot;rounded&quot;:0};" parent="ijy5WbkwjNXw3hCgH0EY-1" vertex="1">
          <mxGeometry x="1595" y="1358" width="10" height="30" as="geometry" />
        </mxCell>
        <mxCell id="ijy5WbkwjNXw3hCgH0EY-82" value="5.1 Hiển thị danh sách&lt;br style=&quot;border-color: var(--border-color);&quot;&gt;hãng" style="html=1;align=left;spacingLeft=2;endArrow=block;rounded=0;edgeStyle=orthogonalEdgeStyle;curved=0;rounded=0;" parent="ijy5WbkwjNXw3hCgH0EY-1" edge="1">
          <mxGeometry x="0.0039" relative="1" as="geometry">
            <mxPoint x="1605" y="1348" as="sourcePoint" />
            <Array as="points">
              <mxPoint x="1635" y="1378" />
            </Array>
            <mxPoint x="1605" y="1378" as="targetPoint" />
            <mxPoint as="offset" />
          </mxGeometry>
        </mxCell>
        <mxCell id="ijy5WbkwjNXw3hCgH0EY-83" value="" style="html=1;points=[[0,0,0,0,5],[0,1,0,0,-5],[1,0,0,0,5],[1,1,0,0,-5]];perimeter=orthogonalPerimeter;outlineConnect=0;targetShapes=umlLifeline;portConstraint=eastwest;newEdgeStyle={&quot;curved&quot;:0,&quot;rounded&quot;:0};" parent="ijy5WbkwjNXw3hCgH0EY-1" vertex="1">
          <mxGeometry x="1595" y="1478" width="10" height="30" as="geometry" />
        </mxCell>
        <mxCell id="ijy5WbkwjNXw3hCgH0EY-84" value="5.4 Hiển thị thông báo xác nhận&lt;br style=&quot;border-color: var(--border-color);&quot;&gt;muốn&amp;nbsp;xóa&amp;nbsp;hãng không" style="html=1;align=left;spacingLeft=2;endArrow=block;rounded=0;edgeStyle=orthogonalEdgeStyle;curved=0;rounded=0;" parent="ijy5WbkwjNXw3hCgH0EY-1" edge="1">
          <mxGeometry relative="1" as="geometry">
            <mxPoint x="1605" y="1468" as="sourcePoint" />
            <Array as="points">
              <mxPoint x="1635" y="1498" />
            </Array>
            <mxPoint x="1605" y="1498" as="targetPoint" />
          </mxGeometry>
        </mxCell>
        <mxCell id="ijy5WbkwjNXw3hCgH0EY-85" value="" style="html=1;points=[[0,0,0,0,5],[0,1,0,0,-5],[1,0,0,0,5],[1,1,0,0,-5]];perimeter=orthogonalPerimeter;outlineConnect=0;targetShapes=umlLifeline;portConstraint=eastwest;newEdgeStyle={&quot;curved&quot;:0,&quot;rounded&quot;:0};" parent="ijy5WbkwjNXw3hCgH0EY-1" vertex="1">
          <mxGeometry x="1590" y="1668" width="10" height="90" as="geometry" />
        </mxCell>
        <mxCell id="ijy5WbkwjNXw3hCgH0EY-86" value="5. Yêu cầu xóa hãng" style="html=1;verticalAlign=bottom;endArrow=block;edgeStyle=elbowEdgeStyle;elbow=vertical;curved=0;rounded=0;" parent="ijy5WbkwjNXw3hCgH0EY-1" edge="1">
          <mxGeometry relative="1" as="geometry">
            <mxPoint x="1370" y="1340" as="sourcePoint" />
            <Array as="points" />
            <mxPoint x="1585" y="1340" as="targetPoint" />
          </mxGeometry>
        </mxCell>
        <mxCell id="ijy5WbkwjNXw3hCgH0EY-87" value="5.7 Gọi hàm delete() của airlines" style="html=1;verticalAlign=bottom;endArrow=block;edgeStyle=elbowEdgeStyle;elbow=vertical;curved=0;rounded=0;" parent="ijy5WbkwjNXw3hCgH0EY-1" edge="1">
          <mxGeometry x="-0.0029" relative="1" as="geometry">
            <mxPoint x="1605" y="1568" as="sourcePoint" />
            <Array as="points">
              <mxPoint x="1680" y="1568" />
            </Array>
            <mxPoint x="1830" y="1568" as="targetPoint" />
            <mxPoint as="offset" />
          </mxGeometry>
        </mxCell>
        <mxCell id="ijy5WbkwjNXw3hCgH0EY-89" value="5.9 Trả về danh sách hãng" style="html=1;verticalAlign=bottom;endArrow=open;dashed=1;endSize=8;edgeStyle=elbowEdgeStyle;elbow=vertical;curved=0;rounded=0;" parent="ijy5WbkwjNXw3hCgH0EY-1" edge="1">
          <mxGeometry x="-0.0909" relative="1" as="geometry">
            <mxPoint x="1850" y="1632" as="targetPoint" />
            <Array as="points">
              <mxPoint x="1955" y="1632" />
            </Array>
            <mxPoint x="2070" y="1632" as="sourcePoint" />
            <mxPoint as="offset" />
          </mxGeometry>
        </mxCell>
        <mxCell id="ijy5WbkwjNXw3hCgH0EY-90" value="5.2 Chọn hãng&amp;nbsp;cần xóa" style="html=1;verticalAlign=bottom;endArrow=block;edgeStyle=elbowEdgeStyle;elbow=vertical;curved=0;rounded=0;" parent="ijy5WbkwjNXw3hCgH0EY-1" edge="1">
          <mxGeometry relative="1" as="geometry">
            <mxPoint x="1370" y="1398" as="sourcePoint" />
            <Array as="points">
              <mxPoint x="1260" y="1400" />
            </Array>
            <mxPoint x="1585" y="1400" as="targetPoint" />
          </mxGeometry>
        </mxCell>
        <mxCell id="ijy5WbkwjNXw3hCgH0EY-91" value="5.8 Thực hiện xóa hãng" style="html=1;verticalAlign=bottom;endArrow=block;edgeStyle=elbowEdgeStyle;elbow=vertical;curved=0;rounded=0;" parent="ijy5WbkwjNXw3hCgH0EY-1" edge="1">
          <mxGeometry x="-0.0017" relative="1" as="geometry">
            <mxPoint x="1850" y="1591" as="sourcePoint" />
            <Array as="points">
              <mxPoint x="1990" y="1591" />
              <mxPoint x="1935" y="1593" />
            </Array>
            <mxPoint x="2069.5" y="1591" as="targetPoint" />
            <mxPoint as="offset" />
          </mxGeometry>
        </mxCell>
        <mxCell id="ijy5WbkwjNXw3hCgH0EY-92" value="5.3 Chọn nút delete" style="html=1;verticalAlign=bottom;endArrow=block;edgeStyle=elbowEdgeStyle;elbow=vertical;curved=0;rounded=0;" parent="ijy5WbkwjNXw3hCgH0EY-1" edge="1">
          <mxGeometry relative="1" as="geometry">
            <mxPoint x="1370" y="1438" as="sourcePoint" />
            <Array as="points">
              <mxPoint x="1445" y="1438" />
            </Array>
            <mxPoint x="1585" y="1438" as="targetPoint" />
          </mxGeometry>
        </mxCell>
        <mxCell id="ijy5WbkwjNXw3hCgH0EY-93" value="5.5 Yêu cầu xác nhận xóa hãng" style="html=1;verticalAlign=bottom;endArrow=open;dashed=1;endSize=8;edgeStyle=elbowEdgeStyle;elbow=vertical;curved=0;rounded=0;" parent="ijy5WbkwjNXw3hCgH0EY-1" edge="1">
          <mxGeometry x="0.1093" relative="1" as="geometry">
            <mxPoint x="1370" y="1518" as="targetPoint" />
            <Array as="points">
              <mxPoint x="1580" y="1518" />
            </Array>
            <mxPoint x="1543" y="1518" as="sourcePoint" />
            <mxPoint as="offset" />
          </mxGeometry>
        </mxCell>
        <mxCell id="ijy5WbkwjNXw3hCgH0EY-94" value="5.6 Chọn yes" style="html=1;verticalAlign=bottom;endArrow=block;edgeStyle=elbowEdgeStyle;elbow=vertical;curved=0;rounded=0;" parent="ijy5WbkwjNXw3hCgH0EY-1" edge="1">
          <mxGeometry x="0.3315" relative="1" as="geometry">
            <mxPoint x="1480" y="1550" as="sourcePoint" />
            <Array as="points">
              <mxPoint x="1370" y="1550" />
            </Array>
            <mxPoint x="1580" y="1550" as="targetPoint" />
            <mxPoint as="offset" />
          </mxGeometry>
        </mxCell>
        <mxCell id="ijy5WbkwjNXw3hCgH0EY-95" value="" style="html=1;points=[[0,0,0,0,5],[0,1,0,0,-5],[1,0,0,0,5],[1,1,0,0,-5]];perimeter=orthogonalPerimeter;outlineConnect=0;targetShapes=umlLifeline;portConstraint=eastwest;newEdgeStyle={&quot;curved&quot;:0,&quot;rounded&quot;:0};" parent="ijy5WbkwjNXw3hCgH0EY-1" vertex="1">
          <mxGeometry x="1835" y="1548" width="10" height="149" as="geometry" />
        </mxCell>
        <mxCell id="ijy5WbkwjNXw3hCgH0EY-96" value="" style="html=1;points=[];perimeter=orthogonalPerimeter;outlineConnect=0;targetShapes=umlLifeline;portConstraint=eastwest;newEdgeStyle={&quot;edgeStyle&quot;:&quot;elbowEdgeStyle&quot;,&quot;elbow&quot;:&quot;vertical&quot;,&quot;curved&quot;:0,&quot;rounded&quot;:0};" parent="ijy5WbkwjNXw3hCgH0EY-1" vertex="1">
          <mxGeometry x="1595" y="1710" width="10" height="30" as="geometry" />
        </mxCell>
        <mxCell id="ijy5WbkwjNXw3hCgH0EY-97" value="5. Hiển thị thông tin chi tiết hãng" style="text;html=1;align=center;verticalAlign=middle;resizable=0;points=[];autosize=1;strokeColor=none;fillColor=none;" parent="ijy5WbkwjNXw3hCgH0EY-1" vertex="1">
          <mxGeometry x="1309.5" y="1842" width="190" height="30" as="geometry" />
        </mxCell>
        <mxCell id="ijy5WbkwjNXw3hCgH0EY-98" value="Trang quản lý &lt;br&gt;hãng" style="shape=umlLifeline;perimeter=lifelinePerimeter;whiteSpace=wrap;html=1;container=1;dropTarget=0;collapsible=0;recursiveResize=0;outlineConnect=0;portConstraint=eastwest;newEdgeStyle={&quot;curved&quot;:0,&quot;rounded&quot;:0};" parent="ijy5WbkwjNXw3hCgH0EY-1" vertex="1">
          <mxGeometry x="1530" y="1892" width="105" height="330" as="geometry" />
        </mxCell>
        <mxCell id="ijy5WbkwjNXw3hCgH0EY-99" value="" style="html=1;points=[[0,0,0,0,5],[0,1,0,0,-5],[1,0,0,0,5],[1,1,0,0,-5]];perimeter=orthogonalPerimeter;outlineConnect=0;targetShapes=umlLifeline;portConstraint=eastwest;newEdgeStyle={&quot;curved&quot;:0,&quot;rounded&quot;:0};" parent="ijy5WbkwjNXw3hCgH0EY-98" vertex="1">
          <mxGeometry x="47.5" y="69" width="10" height="241" as="geometry" />
        </mxCell>
        <mxCell id="ijy5WbkwjNXw3hCgH0EY-100" value="Xử lý các thông tin hãng" style="shape=umlLifeline;perimeter=lifelinePerimeter;whiteSpace=wrap;html=1;container=1;dropTarget=0;collapsible=0;recursiveResize=0;outlineConnect=0;portConstraint=eastwest;newEdgeStyle={&quot;curved&quot;:0,&quot;rounded&quot;:0};" parent="ijy5WbkwjNXw3hCgH0EY-1" vertex="1">
          <mxGeometry x="1777" y="1892" width="100" height="330" as="geometry" />
        </mxCell>
        <mxCell id="ijy5WbkwjNXw3hCgH0EY-101" value="" style="html=1;points=[];perimeter=orthogonalPerimeter;outlineConnect=0;targetShapes=umlLifeline;portConstraint=eastwest;newEdgeStyle={&quot;edgeStyle&quot;:&quot;elbowEdgeStyle&quot;,&quot;elbow&quot;:&quot;vertical&quot;,&quot;curved&quot;:0,&quot;rounded&quot;:0};" parent="ijy5WbkwjNXw3hCgH0EY-100" vertex="1">
          <mxGeometry x="45" y="130" width="10" height="110" as="geometry" />
        </mxCell>
        <mxCell id="ijy5WbkwjNXw3hCgH0EY-102" value="Hãng" style="shape=umlLifeline;perimeter=lifelinePerimeter;whiteSpace=wrap;html=1;container=1;dropTarget=0;collapsible=0;recursiveResize=0;outlineConnect=0;portConstraint=eastwest;newEdgeStyle={&quot;curved&quot;:0,&quot;rounded&quot;:0};" parent="ijy5WbkwjNXw3hCgH0EY-1" vertex="1">
          <mxGeometry x="2017" y="1891" width="100" height="335" as="geometry" />
        </mxCell>
        <mxCell id="ijy5WbkwjNXw3hCgH0EY-103" value="" style="html=1;points=[];perimeter=orthogonalPerimeter;outlineConnect=0;targetShapes=umlLifeline;portConstraint=eastwest;newEdgeStyle={&quot;edgeStyle&quot;:&quot;elbowEdgeStyle&quot;,&quot;elbow&quot;:&quot;vertical&quot;,&quot;curved&quot;:0,&quot;rounded&quot;:0};" parent="ijy5WbkwjNXw3hCgH0EY-102" vertex="1">
          <mxGeometry x="45.5" y="151" width="10" height="70" as="geometry" />
        </mxCell>
        <mxCell id="ijy5WbkwjNXw3hCgH0EY-104" value="Nhân viên" style="shape=umlLifeline;perimeter=lifelinePerimeter;whiteSpace=wrap;html=1;container=1;dropTarget=0;collapsible=0;recursiveResize=0;outlineConnect=0;portConstraint=eastwest;newEdgeStyle={&quot;curved&quot;:0,&quot;rounded&quot;:0};" parent="ijy5WbkwjNXw3hCgH0EY-1" vertex="1">
          <mxGeometry x="1297" y="1892" width="100" height="330" as="geometry" />
        </mxCell>
        <mxCell id="ijy5WbkwjNXw3hCgH0EY-105" value="" style="html=1;points=[[0,0,0,0,5],[0,1,0,0,-5],[1,0,0,0,5],[1,1,0,0,-5]];perimeter=orthogonalPerimeter;outlineConnect=0;targetShapes=umlLifeline;portConstraint=eastwest;newEdgeStyle={&quot;curved&quot;:0,&quot;rounded&quot;:0};" parent="ijy5WbkwjNXw3hCgH0EY-104" vertex="1">
          <mxGeometry x="45" y="70" width="10" height="240" as="geometry" />
        </mxCell>
        <mxCell id="ijy5WbkwjNXw3hCgH0EY-106" value="" style="html=1;points=[];perimeter=orthogonalPerimeter;outlineConnect=0;targetShapes=umlLifeline;portConstraint=eastwest;newEdgeStyle={&quot;edgeStyle&quot;:&quot;elbowEdgeStyle&quot;,&quot;elbow&quot;:&quot;vertical&quot;,&quot;curved&quot;:0,&quot;rounded&quot;:0};" parent="ijy5WbkwjNXw3hCgH0EY-1" vertex="1">
          <mxGeometry x="1584.5" y="2152" width="10" height="30" as="geometry" />
        </mxCell>
        <mxCell id="ijy5WbkwjNXw3hCgH0EY-107" value="6.7 Hiển thị thông tin chi tiết hãng" style="html=1;align=left;spacingLeft=2;endArrow=block;rounded=0;edgeStyle=orthogonalEdgeStyle;curved=0;rounded=0;" parent="ijy5WbkwjNXw3hCgH0EY-1" edge="1">
          <mxGeometry relative="1" as="geometry">
            <mxPoint x="1592" y="2142" as="sourcePoint" />
            <Array as="points">
              <mxPoint x="1592" y="2142" />
              <mxPoint x="1622" y="2142" />
              <mxPoint x="1622" y="2162" />
            </Array>
            <mxPoint x="1597" y="2162" as="targetPoint" />
          </mxGeometry>
        </mxCell>
        <mxCell id="ijy5WbkwjNXw3hCgH0EY-108" value="" style="html=1;points=[];perimeter=orthogonalPerimeter;outlineConnect=0;targetShapes=umlLifeline;portConstraint=eastwest;newEdgeStyle={&quot;edgeStyle&quot;:&quot;elbowEdgeStyle&quot;,&quot;elbow&quot;:&quot;vertical&quot;,&quot;curved&quot;:0,&quot;rounded&quot;:0};" parent="ijy5WbkwjNXw3hCgH0EY-1" vertex="1">
          <mxGeometry x="1584.5" y="2002" width="10" height="30" as="geometry" />
        </mxCell>
        <mxCell id="ijy5WbkwjNXw3hCgH0EY-109" value="6.2 Gọi hàm&amp;nbsp;loadingCTHang()" style="html=1;align=left;spacingLeft=2;endArrow=block;rounded=0;edgeStyle=orthogonalEdgeStyle;curved=0;rounded=0;" parent="ijy5WbkwjNXw3hCgH0EY-1" edge="1">
          <mxGeometry relative="1" as="geometry">
            <mxPoint x="1592" y="1992" as="sourcePoint" />
            <Array as="points">
              <mxPoint x="1592" y="1992" />
              <mxPoint x="1622" y="1992" />
              <mxPoint x="1622" y="2012" />
            </Array>
            <mxPoint x="1597" y="2012" as="targetPoint" />
          </mxGeometry>
        </mxCell>
        <mxCell id="ijy5WbkwjNXw3hCgH0EY-110" value="6.1 Yêu cầu xem thông tin chi tiết hãng" style="html=1;verticalAlign=bottom;endArrow=block;edgeStyle=elbowEdgeStyle;elbow=vertical;curved=0;rounded=0;" parent="ijy5WbkwjNXw3hCgH0EY-1" edge="1">
          <mxGeometry relative="1" as="geometry">
            <mxPoint x="1359.5" y="1982" as="sourcePoint" />
            <Array as="points">
              <mxPoint x="1444.5" y="1982" />
            </Array>
            <mxPoint x="1569.5" y="1982" as="targetPoint" />
            <mxPoint as="offset" />
          </mxGeometry>
        </mxCell>
        <mxCell id="ijy5WbkwjNXw3hCgH0EY-111" value="6.3 Gọi hàm getCTHang()" style="html=1;verticalAlign=bottom;endArrow=block;edgeStyle=elbowEdgeStyle;elbow=vertical;curved=0;rounded=0;" parent="ijy5WbkwjNXw3hCgH0EY-1" edge="1">
          <mxGeometry relative="1" as="geometry">
            <mxPoint x="1592" y="2042" as="sourcePoint" />
            <Array as="points">
              <mxPoint x="1687" y="2042" />
            </Array>
            <mxPoint x="1812" y="2042" as="targetPoint" />
          </mxGeometry>
        </mxCell>
        <mxCell id="ijy5WbkwjNXw3hCgH0EY-112" value="6.4 Gọi hàm getCTHang()" style="html=1;verticalAlign=bottom;endArrow=block;edgeStyle=elbowEdgeStyle;elbow=vertical;curved=0;rounded=0;" parent="ijy5WbkwjNXw3hCgH0EY-1" edge="1">
          <mxGeometry relative="1" as="geometry">
            <mxPoint x="1834.5" y="2062" as="sourcePoint" />
            <Array as="points">
              <mxPoint x="1929.5" y="2062" />
            </Array>
            <mxPoint x="2054.5" y="2062" as="targetPoint" />
          </mxGeometry>
        </mxCell>
        <mxCell id="ijy5WbkwjNXw3hCgH0EY-113" value="6.5 Trả về thông tin hãng" style="html=1;verticalAlign=bottom;endArrow=open;dashed=1;endSize=8;edgeStyle=elbowEdgeStyle;elbow=vertical;curved=0;rounded=0;" parent="ijy5WbkwjNXw3hCgH0EY-1" edge="1">
          <mxGeometry x="-0.0909" relative="1" as="geometry">
            <mxPoint x="1834.5" y="2092" as="targetPoint" />
            <Array as="points">
              <mxPoint x="1929.5" y="2092" />
            </Array>
            <mxPoint x="2054.5" y="2092" as="sourcePoint" />
            <mxPoint as="offset" />
          </mxGeometry>
        </mxCell>
        <mxCell id="ijy5WbkwjNXw3hCgH0EY-114" value="6.6 Trả về thông tin hãng" style="html=1;verticalAlign=bottom;endArrow=open;dashed=1;endSize=8;edgeStyle=elbowEdgeStyle;elbow=vertical;curved=0;rounded=0;" parent="ijy5WbkwjNXw3hCgH0EY-1" edge="1">
          <mxGeometry x="-0.0909" relative="1" as="geometry">
            <mxPoint x="1592" y="2122" as="targetPoint" />
            <Array as="points">
              <mxPoint x="1687" y="2122" />
            </Array>
            <mxPoint x="1812" y="2122" as="sourcePoint" />
            <mxPoint as="offset" />
          </mxGeometry>
        </mxCell>
        <mxCell id="ijy5WbkwjNXw3hCgH0EY-115" value="6. Tìm kiếm hãng" style="text;html=1;align=center;verticalAlign=middle;resizable=0;points=[];autosize=1;strokeColor=none;fillColor=none;" parent="ijy5WbkwjNXw3hCgH0EY-1" vertex="1">
          <mxGeometry x="1333" y="2422" width="120" height="30" as="geometry" />
        </mxCell>
        <mxCell id="ijy5WbkwjNXw3hCgH0EY-116" value="Trang quản lý &lt;br&gt;hãng" style="shape=umlLifeline;perimeter=lifelinePerimeter;whiteSpace=wrap;html=1;container=1;dropTarget=0;collapsible=0;recursiveResize=0;outlineConnect=0;portConstraint=eastwest;newEdgeStyle={&quot;curved&quot;:0,&quot;rounded&quot;:0};" parent="ijy5WbkwjNXw3hCgH0EY-1" vertex="1">
          <mxGeometry x="1556" y="2462" width="97" height="424" as="geometry" />
        </mxCell>
        <mxCell id="ijy5WbkwjNXw3hCgH0EY-117" value="" style="html=1;points=[];perimeter=orthogonalPerimeter;outlineConnect=0;targetShapes=umlLifeline;portConstraint=eastwest;newEdgeStyle={&quot;edgeStyle&quot;:&quot;elbowEdgeStyle&quot;,&quot;elbow&quot;:&quot;vertical&quot;,&quot;curved&quot;:0,&quot;rounded&quot;:0};" parent="ijy5WbkwjNXw3hCgH0EY-116" vertex="1">
          <mxGeometry x="44.5" y="60" width="10" height="330" as="geometry" />
        </mxCell>
        <mxCell id="ijy5WbkwjNXw3hCgH0EY-118" value="" style="html=1;points=[];perimeter=orthogonalPerimeter;outlineConnect=0;targetShapes=umlLifeline;portConstraint=eastwest;newEdgeStyle={&quot;edgeStyle&quot;:&quot;elbowEdgeStyle&quot;,&quot;elbow&quot;:&quot;vertical&quot;,&quot;curved&quot;:0,&quot;rounded&quot;:0};" parent="ijy5WbkwjNXw3hCgH0EY-116" vertex="1">
          <mxGeometry x="49.5" y="165" width="10" height="30" as="geometry" />
        </mxCell>
        <mxCell id="ijy5WbkwjNXw3hCgH0EY-119" value="" style="html=1;points=[];perimeter=orthogonalPerimeter;outlineConnect=0;targetShapes=umlLifeline;portConstraint=eastwest;newEdgeStyle={&quot;edgeStyle&quot;:&quot;elbowEdgeStyle&quot;,&quot;elbow&quot;:&quot;vertical&quot;,&quot;curved&quot;:0,&quot;rounded&quot;:0};" parent="ijy5WbkwjNXw3hCgH0EY-116" vertex="1">
          <mxGeometry x="49.5" y="315" width="10" height="30" as="geometry" />
        </mxCell>
        <mxCell id="ijy5WbkwjNXw3hCgH0EY-120" value="7.8 Hiển thị thông tin chi tiết hãng" style="html=1;align=left;spacingLeft=2;endArrow=block;rounded=0;edgeStyle=orthogonalEdgeStyle;curved=0;rounded=0;" parent="ijy5WbkwjNXw3hCgH0EY-116" edge="1">
          <mxGeometry relative="1" as="geometry">
            <mxPoint x="57" y="305" as="sourcePoint" />
            <Array as="points">
              <mxPoint x="57" y="305" />
              <mxPoint x="87" y="305" />
              <mxPoint x="87" y="325" />
            </Array>
            <mxPoint x="62" y="325" as="targetPoint" />
            <mxPoint as="offset" />
          </mxGeometry>
        </mxCell>
        <mxCell id="ijy5WbkwjNXw3hCgH0EY-121" value="7 Yêu cầu tìm kiếm hãng" style="html=1;verticalAlign=bottom;endArrow=block;edgeStyle=elbowEdgeStyle;elbow=vertical;curved=0;rounded=0;" parent="ijy5WbkwjNXw3hCgH0EY-116" edge="1">
          <mxGeometry relative="1" as="geometry">
            <mxPoint x="-173" y="80" as="sourcePoint" />
            <Array as="points">
              <mxPoint x="-88" y="80" />
            </Array>
            <mxPoint x="37" y="80" as="targetPoint" />
          </mxGeometry>
        </mxCell>
        <mxCell id="ijy5WbkwjNXw3hCgH0EY-122" value="7.3 Gọi hàm timKiem()" style="html=1;align=left;spacingLeft=2;endArrow=block;rounded=0;edgeStyle=orthogonalEdgeStyle;curved=0;rounded=0;" parent="ijy5WbkwjNXw3hCgH0EY-116" edge="1">
          <mxGeometry relative="1" as="geometry">
            <mxPoint x="57" y="155" as="sourcePoint" />
            <Array as="points">
              <mxPoint x="57" y="155" />
              <mxPoint x="87" y="155" />
              <mxPoint x="87" y="175" />
            </Array>
            <mxPoint x="62" y="175" as="targetPoint" />
            <mxPoint as="offset" />
          </mxGeometry>
        </mxCell>
        <mxCell id="ijy5WbkwjNXw3hCgH0EY-123" value="7.4 Gọi hàm&amp;nbsp;timHang()" style="html=1;verticalAlign=bottom;endArrow=block;edgeStyle=elbowEdgeStyle;elbow=vertical;curved=0;rounded=0;" parent="ijy5WbkwjNXw3hCgH0EY-116" edge="1">
          <mxGeometry relative="1" as="geometry">
            <mxPoint x="57" y="222" as="sourcePoint" />
            <Array as="points">
              <mxPoint x="152" y="222" />
            </Array>
            <mxPoint x="277" y="222" as="targetPoint" />
          </mxGeometry>
        </mxCell>
        <mxCell id="ijy5WbkwjNXw3hCgH0EY-124" value="7.7 Trả về thông tin hãng tương ứng" style="html=1;verticalAlign=bottom;endArrow=open;dashed=1;endSize=8;edgeStyle=elbowEdgeStyle;elbow=vertical;curved=0;rounded=0;" parent="ijy5WbkwjNXw3hCgH0EY-116" edge="1">
          <mxGeometry x="-0.0909" relative="1" as="geometry">
            <mxPoint x="57" y="268" as="targetPoint" />
            <Array as="points">
              <mxPoint x="152" y="268" />
            </Array>
            <mxPoint x="277" y="268" as="sourcePoint" />
            <mxPoint as="offset" />
          </mxGeometry>
        </mxCell>
        <mxCell id="ijy5WbkwjNXw3hCgH0EY-125" value="7.1 Nhập thông tin tìm kiếm" style="html=1;verticalAlign=bottom;endArrow=open;dashed=1;endSize=8;edgeStyle=elbowEdgeStyle;elbow=vertical;curved=0;rounded=0;" parent="ijy5WbkwjNXw3hCgH0EY-116" edge="1">
          <mxGeometry x="-0.0873" relative="1" as="geometry">
            <mxPoint x="-173" y="115" as="targetPoint" />
            <Array as="points">
              <mxPoint x="-78" y="115" />
            </Array>
            <mxPoint x="37" y="115" as="sourcePoint" />
            <mxPoint as="offset" />
          </mxGeometry>
        </mxCell>
        <mxCell id="ijy5WbkwjNXw3hCgH0EY-126" value="7.2 Chọn nút Tìm kiếm" style="html=1;verticalAlign=bottom;endArrow=block;edgeStyle=elbowEdgeStyle;elbow=vertical;curved=0;rounded=0;" parent="ijy5WbkwjNXw3hCgH0EY-116" edge="1">
          <mxGeometry relative="1" as="geometry">
            <mxPoint x="-173" y="145" as="sourcePoint" />
            <Array as="points">
              <mxPoint x="-88" y="145" />
            </Array>
            <mxPoint x="37" y="145" as="targetPoint" />
          </mxGeometry>
        </mxCell>
        <mxCell id="ijy5WbkwjNXw3hCgH0EY-127" value="Dữ liệu hãng" style="shape=umlLifeline;perimeter=lifelinePerimeter;whiteSpace=wrap;html=1;container=1;dropTarget=0;collapsible=0;recursiveResize=0;outlineConnect=0;portConstraint=eastwest;newEdgeStyle={&quot;curved&quot;:0,&quot;rounded&quot;:0};" parent="ijy5WbkwjNXw3hCgH0EY-1" vertex="1">
          <mxGeometry x="1803" y="2462" width="100" height="424" as="geometry" />
        </mxCell>
        <mxCell id="ijy5WbkwjNXw3hCgH0EY-128" value="" style="html=1;points=[];perimeter=orthogonalPerimeter;outlineConnect=0;targetShapes=umlLifeline;portConstraint=eastwest;newEdgeStyle={&quot;edgeStyle&quot;:&quot;elbowEdgeStyle&quot;,&quot;elbow&quot;:&quot;vertical&quot;,&quot;curved&quot;:0,&quot;rounded&quot;:0};" parent="ijy5WbkwjNXw3hCgH0EY-127" vertex="1">
          <mxGeometry x="45" y="204" width="10" height="130" as="geometry" />
        </mxCell>
        <mxCell id="ijy5WbkwjNXw3hCgH0EY-129" value="Nhân viên" style="shape=umlLifeline;perimeter=lifelinePerimeter;whiteSpace=wrap;html=1;container=1;dropTarget=0;collapsible=0;recursiveResize=0;outlineConnect=0;portConstraint=eastwest;newEdgeStyle={&quot;curved&quot;:0,&quot;rounded&quot;:0};" parent="ijy5WbkwjNXw3hCgH0EY-1" vertex="1">
          <mxGeometry x="1323" y="2462" width="100" height="424" as="geometry" />
        </mxCell>
        <mxCell id="ijy5WbkwjNXw3hCgH0EY-130" value="" style="html=1;points=[];perimeter=orthogonalPerimeter;outlineConnect=0;targetShapes=umlLifeline;portConstraint=eastwest;newEdgeStyle={&quot;edgeStyle&quot;:&quot;elbowEdgeStyle&quot;,&quot;elbow&quot;:&quot;vertical&quot;,&quot;curved&quot;:0,&quot;rounded&quot;:0};" parent="ijy5WbkwjNXw3hCgH0EY-1" vertex="1">
          <mxGeometry x="1368" y="2522" width="10" height="334" as="geometry" />
        </mxCell>
        <mxCell id="ijy5WbkwjNXw3hCgH0EY-131" value="7.6 Trả về thông tin hãng tương ứng" style="html=1;verticalAlign=bottom;endArrow=open;dashed=1;endSize=8;edgeStyle=elbowEdgeStyle;elbow=horizontal;curved=0;rounded=0;" parent="ijy5WbkwjNXw3hCgH0EY-1" edge="1">
          <mxGeometry x="-0.0909" relative="1" as="geometry">
            <mxPoint x="1383" y="2840.8199999999997" as="targetPoint" />
            <Array as="points">
              <mxPoint x="1478" y="2840.8199999999997" />
            </Array>
            <mxPoint x="1603" y="2840.8199999999997" as="sourcePoint" />
            <mxPoint as="offset" />
          </mxGeometry>
        </mxCell>
      </root>
    </mxGraphModel>
  </diagram>
</mxfile>
